<?xml version="1.0" standalone="no"?>
<!DOCTYPE svg PUBLIC "-//W3C//DTD SVG 20010904//EN"
 "http://www.w3.org/TR/2001/REC-SVG-20010904/DTD/svg10.dtd">
<svg version="1.0" xmlns="http://www.w3.org/2000/svg"
 width="1280.000000pt" height="1280.000000pt" viewBox="0 0 1280.000000 1280.000000"
 preserveAspectRatio="xMidYMid meet">
<metadata>
Created by potrace 1.15, written by Peter Selinger 2001-2017
</metadata>
<g transform="translate(0.000000,1280.000000) scale(0.100000,-0.100000)"
fill="#e91e63" stroke="none">
<path d="M6613 12376 c-39 -13 -92 -35 -118 -50 -62 -37 -172 -133 -213 -187
-18 -24 -98 -129 -177 -234 -79 -104 -174 -235 -211 -290 -37 -55 -97 -140
-134 -190 -146 -199 -270 -424 -354 -645 -26 -69 -52 -134 -57 -145 -5 -11
-18 -45 -30 -75 -98 -257 -476 -1032 -714 -1464 -12 -23 -77 -142 -145 -266
-198 -361 -509 -911 -738 -1300 -46 -80 -92 -158 -102 -175 -129 -226 -748
-1249 -888 -1468 -42 -65 -295 -459 -358 -557 -23 -36 -88 -139 -144 -230 -56
-91 -124 -199 -150 -240 -163 -257 -757 -1243 -898 -1490 -28 -50 -80 -139
-147 -255 -192 -330 -259 -451 -351 -630 -240 -466 -420 -919 -480 -1207 -42
-205 -47 -384 -13 -489 49 -151 166 -218 329 -189 219 39 759 336 999 549 151
134 194 224 205 429 16 318 147 820 336 1292 163 408 436 949 635 1260 12 19
39 62 60 95 39 62 73 113 165 250 68 101 242 274 340 340 83 55 244 139 300
156 102 31 146 41 260 64 206 41 251 48 560 84 462 54 1115 87 1931 98 506 6
604 1 655 -32 27 -17 54 -85 143 -355 205 -627 436 -1275 626 -1760 41 -107
80 -204 85 -215 5 -11 32 -76 60 -145 175 -426 405 -909 542 -1140 86 -145
231 -359 308 -455 61 -77 232 -253 295 -306 178 -148 407 -253 645 -295 227
-41 656 -33 925 17 346 63 655 154 998 295 189 77 302 131 592 282 80 42 239
244 308 389 73 158 16 293 -125 293 -47 0 -201 -49 -310 -98 -185 -85 -464
-155 -773 -197 -103 -14 -275 -20 -275 -10 0 2 20 53 44 112 82 201 110 369
110 663 0 228 -20 375 -76 570 -115 400 -333 669 -623 767 -68 23 -96 27 -190
27 -130 0 -205 -18 -319 -76 -223 -112 -440 -357 -566 -640 -19 -43 -39 -73
-43 -69 -19 19 -175 310 -281 526 -123 249 -226 483 -331 750 -36 94 -70 179
-75 190 -36 83 -320 886 -320 906 0 5 113 9 253 9 260 0 741 22 902 41 174 20
323 45 455 76 201 47 332 97 442 170 218 144 226 317 20 411 -68 31 -203 70
-322 91 -36 7 -85 17 -110 22 -25 4 -79 13 -120 19 -41 5 -104 15 -140 20
-480 75 -1180 139 -1511 140 -108 0 -160 4 -172 13 -9 6 -27 37 -40 67 -32 72
-208 610 -321 980 -94 309 -155 512 -166 555 -5 17 -38 136 -75 265 -138 489
-256 952 -334 1315 -6 28 -12 59 -15 70 -11 51 -86 423 -90 450 -3 17 -10 57
-15 90 -6 33 -15 87 -21 120 -42 239 -71 486 -96 825 -14 195 -15 257 -5 460
12 228 28 392 52 515 6 33 12 121 13 195 1 130 0 137 -26 182 -52 87 -145 108
-285 64z m-754 -2983 c6 -21 13 -54 16 -73 3 -19 20 -96 37 -170 17 -74 36
-162 44 -195 15 -69 100 -404 138 -545 73 -275 89 -334 165 -600 86 -305 192
-673 232 -805 30 -100 34 -114 84 -280 15 -49 40 -130 55 -180 56 -176 100
-338 95 -344 -3 -3 -137 -8 -298 -12 -327 -9 -716 -31 -1027 -59 -58 -6 -161
-15 -230 -20 -129 -11 -254 -23 -400 -40 -47 -5 -125 -14 -175 -19 -116 -14
-236 -29 -305 -41 -30 -5 -86 -14 -125 -21 -78 -12 -239 -44 -297 -58 -21 -5
-38 -8 -38 -6 0 1 23 42 52 91 28 49 65 114 83 144 29 51 792 1362 837 1440
25 43 444 773 468 815 9 17 57 102 107 190 91 162 235 422 378 683 42 78 81
142 86 142 4 0 13 -17 18 -37z"/>
</g>
</svg>
